HIERARCHY
ROOT Model
{
	OFFSET 0 0 0
	CHANNELS 6 Xposition Yposition Zposition Zrotation Xrotation Yrotation
	JOINT Model1
	{
		OFFSET 0 -2.25479 2.99384
		CHANNELS 3 Zrotation Xrotation Yrotation
		JOINT Model2
		{
			OFFSET 12.111 0 0
			CHANNELS 3 Zrotation Xrotation Yrotation
			JOINT Model3
			{
				OFFSET 11.5502 0 0
				CHANNELS 3 Zrotation Xrotation Yrotation
				JOINT Model4
				{
					OFFSET 11.781 0 0
					CHANNELS 3 Zrotation Xrotation Yrotation
					JOINT Model5
					{
						OFFSET 20.0601 0 0
						CHANNELS 3 Zrotation Xrotation Yrotation
						JOINT Model6
						{
							OFFSET 11.1962 0 0
							CHANNELS 3 Zrotation Xrotation Yrotation
							End Site
							{
								OFFSET 0 0 0
							}
						}
					}
					JOINT Model7
					{
						OFFSET 10.8223 0.417534 3.51114
						CHANNELS 3 Zrotation Xrotation Yrotation
						JOINT Model8
						{
							OFFSET -6.07944 0 0
							CHANNELS 3 Zrotation Xrotation Yrotation
							JOINT Model9
							{
								OFFSET -0.277405 10.39 -0.051239
								CHANNELS 3 Zrotation Xrotation Yrotation
								JOINT Model10
								{
									OFFSET -3.43909 -0.282043 1.86679
									CHANNELS 3 Zrotation Xrotation Yrotation
									JOINT Model11
									{
										OFFSET 13.0269 0 0
										CHANNELS 3 Zrotation Xrotation Yrotation
										JOINT Model12
										{
											OFFSET 10.8866 0 0
											CHANNELS 3 Zrotation Xrotation Yrotation
											JOINT Model13
											{
												OFFSET 16.7317 0 0
												CHANNELS 3 Zrotation Xrotation Yrotation
												JOINT Model14
												{
													OFFSET 11.8292 0 0
													CHANNELS 3 Zrotation Xrotation Yrotation
													JOINT Model15
													{
														OFFSET 4.82751 -3.73566 -0.836517
														CHANNELS 3 Zrotation Xrotation Yrotation
														JOINT Model16
														{
															OFFSET 3.75311 -0.0582886 -0.0186462
															CHANNELS 3 Zrotation Xrotation Yrotation
															JOINT Model17
															{
																OFFSET 2.88689 0.0192337 0.014801
																CHANNELS 3 Zrotation Xrotation Yrotation
																End Site
																{
																	OFFSET 0 0 0
																}
															}
														}
													}
													JOINT Model18
													{
														OFFSET 9.72197 -3.06458 0.23877
														CHANNELS 3 Zrotation Xrotation Yrotation
														JOINT Model19
														{
															OFFSET 4.61131 0 0
															CHANNELS 3 Zrotation Xrotation Yrotation
															JOINT Model20
															{
																OFFSET 2.8969 -7.62939e-006 0
																CHANNELS 3 Zrotation Xrotation Yrotation
																End Site
																{
																	OFFSET 0 0 0
																}
															}
														}
													}
													JOINT Model21
													{
														OFFSET 9.54431 -0.745064 0.588928
														CHANNELS 3 Zrotation Xrotation Yrotation
														JOINT Model22
														{
															OFFSET 5.33978 0 0
															CHANNELS 3 Zrotation Xrotation Yrotation
															JOINT Model23
															{
																OFFSET 3.03619 7.62939e-006 0
																CHANNELS 3 Zrotation Xrotation Yrotation
																End Site
																{
																	OFFSET 0 0 0
																}
															}
														}
													}
													JOINT Model24
													{
														OFFSET 9.47758 1.51286 0.485107
														CHANNELS 3 Zrotation Xrotation Yrotation
														JOINT Model25
														{
															OFFSET 4.96136 7.62939e-006 0
															CHANNELS 3 Zrotation Xrotation Yrotation
															JOINT Model26
															{
																OFFSET 2.51965 0 0
																CHANNELS 3 Zrotation Xrotation Yrotation
																End Site
																{
																	OFFSET 0 0 0
																}
															}
														}
													}
													JOINT Model27
													{
														OFFSET 9.34247 3.34117 -0.239288
														CHANNELS 3 Zrotation Xrotation Yrotation
														JOINT Model28
														{
															OFFSET 3.28259 2.28882e-005 0
															CHANNELS 3 Zrotation Xrotation Yrotation
															JOINT Model29
															{
																OFFSET 2.1292 0 0
																CHANNELS 3 Zrotation Xrotation Yrotation
																End Site
																{
																	OFFSET 0 0 0
																}
															}
														}
													}
												}
											}
										}
									}
								}
							}
						}
					}
					JOINT Model30
					{
						OFFSET 10.8223 0.4179 -3.51108
						CHANNELS 3 Zrotation Xrotation Yrotation
						JOINT Model31
						{
							OFFSET 6.07944 0 0
							CHANNELS 3 Zrotation Xrotation Yrotation
							JOINT Model32
							{
								OFFSET 0.277405 -10.39 0.051239
								CHANNELS 3 Zrotation Xrotation Yrotation
								JOINT Model33
								{
									OFFSET 3.43909 0.282043 -1.86679
									CHANNELS 3 Zrotation Xrotation Yrotation
									JOINT Model34
									{
										OFFSET -13.0269 0 0
										CHANNELS 3 Zrotation Xrotation Yrotation
										JOINT Model35
										{
											OFFSET -10.8866 0 0
											CHANNELS 3 Zrotation Xrotation Yrotation
											JOINT Model36
											{
												OFFSET -16.7317 0 0
												CHANNELS 3 Zrotation Xrotation Yrotation
												JOINT Model37
												{
													OFFSET -11.8292 0 0
													CHANNELS 3 Zrotation Xrotation Yrotation
													JOINT Model38
													{
														OFFSET -4.82751 3.73566 0.836517
														CHANNELS 3 Zrotation Xrotation Yrotation
														JOINT Model39
														{
															OFFSET -3.75311 0.0582886 0.0186462
															CHANNELS 3 Zrotation Xrotation Yrotation
															JOINT Model40
															{
																OFFSET -2.88687 -0.0192337 -0.014801
																CHANNELS 3 Zrotation Xrotation Yrotation
																End Site
																{
																	OFFSET 0 0 0
																}
															}
														}
													}
													JOINT Model41
													{
														OFFSET -9.72198 3.06459 -0.23877
														CHANNELS 3 Zrotation Xrotation Yrotation
														JOINT Model42
														{
															OFFSET -4.6113 0 0
															CHANNELS 3 Zrotation Xrotation Yrotation
															JOINT Model43
															{
																OFFSET -2.89691 0 0
																CHANNELS 3 Zrotation Xrotation Yrotation
																End Site
																{
																	OFFSET 0 0 0
																}
															}
														}
													}
													JOINT Model44
													{
														OFFSET -9.54431 0.745064 -0.588928
														CHANNELS 3 Zrotation Xrotation Yrotation
														JOINT Model45
														{
															OFFSET -5.33978 0 0
															CHANNELS 3 Zrotation Xrotation Yrotation
															JOINT Model46
															{
																OFFSET -3.03619 -1.52588e-005 0
																CHANNELS 3 Zrotation Xrotation Yrotation
																End Site
																{
																	OFFSET 0 0 0
																}
															}
														}
													}
													JOINT Model47
													{
														OFFSET -9.4776 -1.51286 -0.485107
														CHANNELS 3 Zrotation Xrotation Yrotation
														JOINT Model48
														{
															OFFSET -4.96136 -1.52588e-005 0
															CHANNELS 3 Zrotation Xrotation Yrotation
															JOINT Model49
															{
																OFFSET -2.51965 0 0
																CHANNELS 3 Zrotation Xrotation Yrotation
																End Site
																{
																	OFFSET 0 0 0
																}
															}
														}
													}
													JOINT Model50
													{
														OFFSET -9.34247 -3.34118 0.239288
														CHANNELS 3 Zrotation Xrotation Yrotation
														JOINT Model51
														{
															OFFSET -3.28259 -2.28882e-005 0
															CHANNELS 3 Zrotation Xrotation Yrotation
															JOINT Model52
															{
																OFFSET -2.12921 0 0
																CHANNELS 3 Zrotation Xrotation Yrotation
																End Site
																{
																	OFFSET 0 0 0
																}
															}
														}
													}
												}
											}
										}
									}
								}
							}
						}
					}
				}
			}
		}
	}
	JOINT Model53
	{
		OFFSET 4.38025 -2.14632 -1.11517
		CHANNELS 3 Zrotation Xrotation Yrotation
		JOINT Model54
		{
			OFFSET 0 0 4.94998
			CHANNELS 3 Zrotation Xrotation Yrotation
			JOINT Model55
			{
				OFFSET 18.5642 0 0
				CHANNELS 3 Zrotation Xrotation Yrotation
				JOINT Model56
				{
					OFFSET 21.2884 0 0
					CHANNELS 3 Zrotation Xrotation Yrotation
					JOINT Model57
					{
						OFFSET 30.261 0 0
						CHANNELS 3 Zrotation Xrotation Yrotation
						JOINT Model58
						{
							OFFSET 11.7259 0 0
							CHANNELS 3 Zrotation Xrotation Yrotation
							JOINT Model59
							{
								OFFSET 10.682 0 0
								CHANNELS 3 Zrotation Xrotation Yrotation
								End Site
								{
									OFFSET 0 0 0
								}
							}
						}
					}
				}
			}
		}
	}
	JOINT Model60
	{
		OFFSET -4.38025 -2.14632 -1.11517
		CHANNELS 3 Zrotation Xrotation Yrotation
		JOINT Model61
		{
			OFFSET 0 0 -4.94998
			CHANNELS 3 Zrotation Xrotation Yrotation
			JOINT Model62
			{
				OFFSET -18.5642 0 0
				CHANNELS 3 Zrotation Xrotation Yrotation
				JOINT Model63
				{
					OFFSET -21.2884 0 0
					CHANNELS 3 Zrotation Xrotation Yrotation
					JOINT Model64
					{
						OFFSET -30.261 0 0
						CHANNELS 3 Zrotation Xrotation Yrotation
						JOINT Model65
						{
							OFFSET -11.7259 0 0
							CHANNELS 3 Zrotation Xrotation Yrotation
							JOINT Model66
							{
								OFFSET -10.682 0 0
								CHANNELS 3 Zrotation Xrotation Yrotation
								End Site
								{
									OFFSET 0 0 0
								}
							}
						}
					}
				}
			}
		}
	}
}
MOTION
Frames: 4
Frame Time: 0.033333
-630.9 173.319 -679.571 96.1311 -68.8218 94.3917 -180 4.29621e-031 -90 0.515916 -0.149354 0.393977 1.03286 -0.295588 0.789288 1.03286 -0.295151 0.78928 -12.0866 1.14785 0.720052 22.5087 0.962253 -2.93241 120.092 75.5343 58.4939 8.14461 16.5594 2.78602 -167.277 84.4999 48.8109 124.6 10.7832 -24.075 -7.66203e-007 25.975 3.48003e-005 -52.2183 4.14583 0.482401 5.76625e-007 5.55397 5.8288e-007 -1.84625 0.198425 -12.2674 -72.0648 39.0385 39.3397 33.3638 2.10362 14.835 0.588947 0.308273 6.35287 -99.6409 81.413 100.35 -0.0181409 2.77721e-005 -0.117315 -0.124139 0.00241111 -0.799296 -79.8382 79.5773 80.5374 -0.000225775 -0.000220932 2.21869e-005 -0.000956225 0.000122882 -2.73308e-005 -66.7416 80.4058 67.2171 -0.00043713 1.59383e-005 -2.7328e-005 -0.000136601 -0.000109301 -5.46513e-005 -6.42159 81.2158 8.01779 -0.000218564 1.69179e-005 0.000212133 0.000901587 -0.000184788 -0.000218576 -59.9282 75.5373 58.5147 2.86177 14.9147 3.9924 -167.277 84.4999 48.8109 126.626 -2.12466 22.0202 -6.6168e-006 21.026 3.62174e-005 -97.0556 -5.26859 0.606919 3.02444e-006 -8.21247 -7.7811e-007 15.4865 -3.15987 -22.9336 -72.0648 39.0385 39.3397 33.3638 2.10361 14.835 0.588946 0.308273 6.35287 -99.6409 81.413 100.35 -0.0181409 3.00771e-005 -0.117315 -0.124139 0.00241113 -0.799296 -79.8382 79.5773 80.5374 -0.000260652 -0.000218568 2.35798e-005 -0.000956235 0.000122995 -2.73079e-005 -66.7416 80.4058 67.2171 -0.000437138 1.48801e-005 -2.73114e-005 -0.000136612 -0.000109285 -5.46289e-005 -6.42159 81.2158 8.01779 -0.000218572 1.95786e-005 0.000212305 0.000901575 -0.000191245 -0.000218555 0.000811311 0.56661 89.91 -20.537 -2.98379 1.64234 -1.96903e-006 -5.2794 -1.01966e-007 41.335 -5.61829 -1.84353 -2.68478e-007 -8.50975 -2.7376e-007 -69.1763 0.234756 -1.08517 -35.4947 5.048e-007 2.3701e-007 -180 -0.566579 -90.09 -25.6884 -5.58359 -14.7471 -4.51051e-007 -1.30123 -1.13572e-008 30.0578 -3.72615 -2.65029 2.37763e-007 -5.65189 -3.49104e-007 -50.3653 -6.09933 4.36271 -35.4948 -0.000221987 1.20611e-005 
-630.928 173.318 -679.736 96.1807 -69.1796 94.5405 -180 4.29621e-031 -90 0.592924 -0.185282 0.340533 1.18695 -0.367463 0.682971 1.18695 -0.367026 0.682962 -11.8937 1.38062 0.897813 23.4983 1.30949 -2.2339 120.092 75.5343 58.4939 6.62411 15.1918 2.92775 -167.277 84.4999 48.8109 123.983 11.4294 -22.2298 -1.66332e-006 27.2878 3.52025e-005 -51.626 2.82237 0.477907 5.9684e-007 3.57029 5.81272e-007 -1.00479 0.108265 -12.2991 -72.0648 39.0385 39.3397 33.3638 2.10362 14.835 0.588947 0.308273 6.35287 -99.6409 81.413 100.35 -0.0181409 2.77721e-005 -0.117315 -0.124139 0.00241111 -0.799296 -79.8382 79.5773 80.5374 -0.000225775 -0.000220932 2.21869e-005 -0.000956225 0.000122882 -2.73308e-005 -66.7416 80.4058 67.2171 -0.00043713 1.59383e-005 -2.7328e-005 -0.000136601 -0.000109301 -5.46513e-005 -6.42159 81.2158 8.01779 -0.000218564 1.69179e-005 0.000212133 0.000901587 -0.000184788 -0.000218576 -59.9282 75.5373 58.5147 1.99238 14.9897 4.27786 -167.277 84.4999 48.8109 129.928 -1.69581 23.4409 -6.88834e-006 21.4259 3.63158e-005 -95.2218 -2.40197 0.607021 3.08249e-006 -3.9445 -7.71959e-007 11.5355 -2.33072 -22.7733 -72.0648 39.0385 39.3397 33.3638 2.10361 14.835 0.588946 0.308273 6.35287 -99.6409 81.413 100.35 -0.0181409 3.00771e-005 -0.117315 -0.124139 0.00241113 -0.799296 -79.8382 79.5773 80.5374 -0.000260652 -0.000218568 2.35798e-005 -0.000956235 0.000122995 -2.73079e-005 -66.7416 80.4058 67.2171 -0.000437138 1.48801e-005 -2.73114e-005 -0.000136612 -0.000109285 -5.46289e-005 -6.42159 81.2158 8.01779 -0.000218572 1.95786e-005 0.000212305 0.000901575 -0.000191245 -0.000218555 0.000811311 0.56661 89.91 -20.7028 -3.12465 1.22896 -1.96899e-006 -5.26202 -1.01963e-007 41.4442 -5.57792 -1.56146 -2.6818e-007 -8.44808 -2.73716e-007 -69.1157 0.313973 -1.12502 -35.4947 -7.92569e-006 1.18547e-006 -180 -0.566579 -90.09 -25.7616 -5.88482 -14.9864 -4.51122e-007 -1.65631 -1.1359e-008 30.155 -2.54763 -2.30393 2.48575e-007 -3.88126 -3.48205e-007 -50.948 -5.87015 4.11856 -35.4947 -8.52636e-006 1.63579e-005 
-631.062 173.298 -679.948 95.9593 -69.3597 94.394 -180 4.29621e-031 -90 0.687506 -0.21063 0.249121 1.37594 -0.418692 0.500756 1.37594 -0.418255 0.500746 -11.1652 1.49406 0.935609 23.5756 1.5245 -1.49255 120.092 75.5343 58.4939 5.37911 14.6916 3.17614 -167.277 84.4999 48.8109 124.39 11.2916 -19.7726 -2.2173e-006 28.0833 3.54598e-005 -51.4817 2.31087 0.476789 6.04629e-007 2.80343 5.80839e-007 0.389397 -0.037167 -10.9048 -72.0648 39.0385 39.3397 33.3638 2.10362 14.835 0.588947 0.308273 6.35287 -99.6409 81.413 100.35 -0.0181409 2.77721e-005 -0.117315 -0.124139 0.00241111 -0.799296 -79.8382 79.5773 80.5374 -0.000225775 -0.000220932 2.21869e-005 -0.000956225 0.000122882 -2.73308e-005 -66.7416 80.4058 67.2171 -0.00043713 1.59383e-005 -2.7328e-005 -0.000136601 -0.000109301 -5.46513e-005 -6.42159 81.2158 8.01779 -0.000218564 1.69179e-005 0.000212133 0.000901587 -0.000184788 -0.000218576 -59.9282 75.5373 58.5147 0.481274 14.3118 4.53908 -167.277 84.4999 48.8109 134.133 -1.03057 24.2318 -7.10297e-006 21.7405 3.63947e-005 -94.3055 0.502841 0.60735 3.14093e-006 0.397109 -7.70149e-007 7.37976 -1.63279 -24.92 -72.0648 39.0385 39.3397 33.3638 2.10361 14.835 0.588946 0.308273 6.35287 -99.6409 81.413 100.35 -0.0181409 3.00771e-005 -0.117315 -0.124139 0.00241113 -0.799296 -79.8382 79.5773 80.5374 -0.000260652 -0.000218568 2.35798e-005 -0.000956235 0.000122995 -2.73079e-005 -66.7416 80.4058 67.2171 -0.000437138 1.48801e-005 -2.73114e-005 -0.000136612 -0.000109285 -5.46289e-005 -6.42159 81.2158 8.01779 -0.000218572 1.95786e-005 0.000212305 0.000901575 -0.000191245 -0.000218555 0.000811311 0.56661 89.91 -21.0861 -2.84099 1.36966 -1.96836e-006 -4.90511 -1.01907e-007 41.5485 -5.8672 -1.67821 -2.70282e-007 -8.88287 -2.74032e-007 -68.8753 0.0205043 -0.962153 -35.4947 -3.03881e-005 3.70839e-006 -180 -0.566579 -90.09 -26.0807 -5.59396 -14.735 -4.51072e-007 -1.40605 -1.13577e-008 31.5911 -1.56474 -2.03741 2.57535e-007 -2.40812 -3.47714e-007 -52.6754 -5.16199 3.39804 -35.4951 -0.000892065 4.81764e-005 
-631.321 173.253 -680.227 95.1589 -69.0948 93.748 -180 4.29621e-031 -90 0.810429 -0.282808 0.171607 1.62173 -0.563596 0.347202 1.62173 -0.563159 0.34719 -9.70087 1.53952 0.889187 22.2508 1.63237 -0.933348 120.092 75.5343 58.4939 4.63549 15.6042 3.63584 -167.277 84.4999 48.8109 126.551 9.7035 -16.3194 -1.88978e-006 27.6144 3.53068e-005 -51.2992 2.23334 0.475557 6.05804e-007 2.68768 5.80783e-007 -0.0112282 0.000809868 -8.24207 -72.0648 39.0385 39.3397 33.3638 2.10362 14.835 0.588947 0.308273 6.35287 -99.6409 81.413 100.35 -0.0181409 2.77721e-005 -0.117315 -0.124139 0.00241111 -0.799296 -79.8382 79.5773 80.5374 -0.000225775 -0.000220932 2.21869e-005 -0.000956225 0.000122882 -2.73308e-005 -66.7416 80.4058 67.2171 -0.00043713 1.59383e-005 -2.7328e-005 -0.000136601 -0.000109301 -5.46513e-005 -6.42159 81.2158 8.01779 -0.000218564 1.69179e-005 0.000212133 0.000901587 -0.000184788 -0.000218576 -59.9282 75.5373 58.5147 -1.37679 12.1232 4.41323 -167.277 84.4999 48.8109 139.441 -0.0324086 25.6572 -7.49798e-006 22.3158 3.65429e-005 -92.7603 3.82613 0.609714 3.2078e-006 5.35665 -7.73509e-007 7.05955 -1.35683 -21.7331 -72.0648 39.0385 39.3397 33.3638 2.10361 14.835 0.588946 0.308273 6.35287 -99.6409 81.413 100.35 -0.0181409 3.00771e-005 -0.117315 -0.124139 0.00241113 -0.799296 -79.8382 79.5773 80.5374 -0.000260652 -0.000218568 2.35798e-005 -0.000956235 0.000122995 -2.73079e-005 -66.7416 80.4058 67.2171 -0.000437138 1.48801e-005 -2.73114e-005 -0.000136612 -0.000109285 -5.46289e-005 -6.42159 81.2158 8.01779 -0.000218572 1.95786e-005 0.000212305 0.000901575 -0.000191245 -0.000218555 0.000811311 0.56661 89.91 -21.808 -2.26469 1.71875 -1.96712e-006 -4.20999 -1.01808e-007 41.7803 -6.23774 -1.82485 -2.72984e-007 -9.4401 -2.74463e-007 -68.5669 -0.32657 -0.766598 -35.4947 -6.26728e-005 7.33342e-006 -180 -0.566579 -90.09 -26.4433 -4.54488 -13.9498 -4.50847e-007 -0.27079 -1.13544e-008 34.5207 -1.39457 -1.36779 2.59056e-007 -2.15767 -3.47653e-007 -55.731 -3.64616 2.03138 -35.4959 -0.00326926 0.000176321 
